<svg width="320" height="118" viewBox="0 0 320 118" fill="none" xmlns="http://www.w3.org/2000/svg">
<g clip-path="url(#clip0_8_2)">
<path d="M40.4176 24.1492C41.6515 22.9636 42.5036 21.4345 42.8642 19.7587C43.2248 18.0829 43.0773 16.3372 42.4408 14.7462C41.8043 13.1553 40.7079 11.7919 39.2927 10.8317C37.8776 9.8715 36.2084 9.35836 34.5001 9.35836C32.7919 9.35836 31.1227 9.8715 29.7075 10.8317C28.2923 11.7919 27.1959 13.1553 26.5594 14.7462C25.9229 16.3372 25.7755 18.0829 26.136 19.7587C26.4966 21.4345 27.3487 22.9636 28.5827 24.1492C30.1703 25.6893 32.292 26.5502 34.5001 26.5502C36.7082 26.5502 38.8299 25.6893 40.4176 24.1492ZM36.7053 44.5203H40.2473C40.4934 44.5203 40.7295 44.6184 40.9035 44.7931C41.0776 44.9677 41.1754 45.2046 41.1754 45.4517C41.1778 45.6356 41.1211 45.8154 41.0136 45.9644L32.5844 60.4053C32.471 60.5923 32.2956 60.7332 32.0889 60.8033C31.8823 60.8734 31.6577 60.8683 31.4545 60.7887C31.2513 60.7092 31.0824 60.5603 30.9777 60.3683C30.8729 60.1763 30.8389 59.9534 30.8815 59.7388L32.1246 50.8777L27.9271 50.9546C27.6824 50.9569 27.4467 50.8621 27.2713 50.6909C27.0959 50.5196 26.995 50.2858 26.9905 50.0403C26.9881 49.8693 27.0323 49.7009 27.1182 49.5532L35.4112 35.1208C35.5242 34.9454 35.6927 34.8131 35.8897 34.7454C36.0867 34.6777 36.3006 34.6784 36.4971 34.7474C36.6937 34.8164 36.8613 34.9498 36.9732 35.126C37.0851 35.3022 37.1347 35.5111 37.114 35.719L36.6883 44.5203H36.7053ZM27.9441 94.4397H41.0561V103.42C41.0517 105.164 40.3595 106.835 39.131 108.068C37.9024 109.301 36.2375 109.995 34.5001 110C32.7627 109.995 31.0978 109.301 29.8693 108.068C28.6408 106.835 27.9486 105.164 27.9441 103.42V94.4397ZM32.2013 65.6091H36.782C39.4573 65.6159 42.0209 66.6861 43.9118 68.5854C45.8028 70.4847 46.8669 73.0585 46.8714 75.7434V90.2698C46.8714 90.723 46.692 91.1577 46.3727 91.4782C46.0533 91.7987 45.6202 91.9788 45.1686 91.9788H23.8402C23.3886 91.9788 22.9555 91.7987 22.6361 91.4782C22.3168 91.1577 22.1373 90.723 22.1373 90.2698V75.7434C22.1463 73.0599 23.2119 70.4887 25.1019 68.5903C26.9918 66.692 29.5529 65.6204 32.2268 65.6091H32.2013ZM36.7564 69.0271H32.2268C30.4555 69.0361 28.7593 69.7469 27.5076 71.0047C26.2558 72.2626 25.5498 73.9657 25.5431 75.7434V88.5608H43.4742V75.7434C43.4697 73.9627 42.7635 72.2561 41.5097 70.9962C40.2558 69.7363 38.5563 69.0253 36.782 69.0186L36.7564 69.0271ZM46.7352 24.978C50.517 25.8856 53.8855 28.0417 56.3003 31.1005C58.715 34.1592 60.0361 37.9433 60.0516 41.8457V73.9746C60.0459 76.2515 59.5916 78.5048 58.7148 80.6048C57.8381 82.7048 56.5562 84.61 54.943 86.2109C54.0558 87.1015 53.0769 87.895 52.0226 88.5779V83.9807L52.3802 83.6389C53.6485 82.3714 54.6554 80.8655 55.3435 79.2072C56.0316 77.549 56.3874 75.7709 56.3904 73.9746V41.8457C56.3717 38.2725 54.9675 34.847 52.4755 32.295C49.9834 29.7429 46.5993 28.2648 43.04 28.1738C40.6739 29.9525 37.769 30.8579 34.8152 30.7373C30.558 30.7373 28.0037 29.5923 25.9518 28.1738C22.3837 28.2475 18.9859 29.719 16.4848 32.2738C13.9837 34.8287 12.5776 38.2641 12.5673 41.8457V73.9746C12.571 77.5594 13.9775 80.9993 16.4838 83.5535L16.569 83.6389L16.9266 83.9807V88.5779C15.8796 87.8827 14.9091 87.0778 14.0317 86.1768L13.9295 86.0742C10.7493 82.8415 8.96328 78.4833 8.95719 73.9404V41.8457C8.96149 39.5686 9.41515 37.3149 10.292 35.2147C11.1688 33.1145 12.4514 31.2094 14.0658 29.6094C16.3301 27.3366 19.1766 25.7367 22.2906 24.9866C20.5067 23.2668 18.123 22.3161 15.6494 22.3376H4.40203C-1.46433 22.3376 -1.46433 13.4338 4.40203 13.4338H15.6154C23.8402 13.4253 23.3549 5 34.8407 5C45.3048 5 45.2622 13.4253 53.3849 13.4253H64.6067C70.4731 13.4253 70.4731 22.3291 64.6067 22.3291H53.3849C50.9104 22.3161 48.5272 23.2655 46.7352 24.978Z" fill="white"/>
</g>
<path d="M120.62 14.36V22.38H130.74V26.52H120.62V34.7H133.46V39H115.22V10.08H133.46V14.36H120.62ZM142.37 9.28V39H137.43V9.28H142.37ZM147.132 24.86H157.492V28.98H147.132V24.86ZM178.393 15.34C178.233 15.62 178.06 15.8267 177.873 15.96C177.7 16.08 177.48 16.14 177.213 16.14C176.933 16.14 176.627 16.04 176.293 15.84C175.973 15.6267 175.587 15.3933 175.133 15.14C174.68 14.8867 174.147 14.66 173.533 14.46C172.933 14.2467 172.22 14.14 171.393 14.14C170.647 14.14 169.993 14.2333 169.433 14.42C168.873 14.5933 168.4 14.84 168.013 15.16C167.64 15.48 167.36 15.8667 167.173 16.32C166.987 16.76 166.893 17.2467 166.893 17.78C166.893 18.46 167.08 19.0267 167.453 19.48C167.84 19.9333 168.347 20.32 168.973 20.64C169.6 20.96 170.313 21.2467 171.113 21.5C171.913 21.7533 172.733 22.0267 173.573 22.32C174.413 22.6 175.233 22.9333 176.033 23.32C176.833 23.6933 177.547 24.1733 178.173 24.76C178.8 25.3333 179.3 26.04 179.673 26.88C180.06 27.72 180.253 28.74 180.253 29.94C180.253 31.2467 180.027 32.4733 179.573 33.62C179.133 34.7533 178.48 35.7467 177.613 36.6C176.76 37.44 175.713 38.1067 174.473 38.6C173.233 39.08 171.813 39.32 170.213 39.32C169.293 39.32 168.387 39.2267 167.493 39.04C166.6 38.8667 165.74 38.6133 164.913 38.28C164.1 37.9467 163.333 37.5467 162.613 37.08C161.893 36.6133 161.253 36.0933 160.693 35.52L162.273 32.94C162.407 32.7533 162.58 32.6 162.793 32.48C163.007 32.3467 163.233 32.28 163.473 32.28C163.807 32.28 164.167 32.42 164.553 32.7C164.94 32.9667 165.4 33.2667 165.933 33.6C166.467 33.9333 167.087 34.24 167.793 34.52C168.513 34.7867 169.373 34.92 170.373 34.92C171.907 34.92 173.093 34.56 173.933 33.84C174.773 33.1067 175.193 32.06 175.193 30.7C175.193 29.94 175 29.32 174.613 28.84C174.24 28.36 173.74 27.96 173.113 27.64C172.487 27.3067 171.773 27.0267 170.973 26.8C170.173 26.5733 169.36 26.3267 168.533 26.06C167.707 25.7933 166.893 25.4733 166.093 25.1C165.293 24.7267 164.58 24.24 163.953 23.64C163.327 23.04 162.82 22.2933 162.433 21.4C162.06 20.4933 161.873 19.38 161.873 18.06C161.873 17.0067 162.08 15.98 162.493 14.98C162.92 13.98 163.533 13.0933 164.333 12.32C165.133 11.5467 166.12 10.9267 167.293 10.46C168.467 9.99333 169.813 9.76 171.333 9.76C173.04 9.76 174.613 10.0267 176.053 10.56C177.493 11.0933 178.72 11.84 179.733 12.8L178.393 15.34ZM198.788 22.82C198.642 23.0067 198.495 23.1533 198.348 23.26C198.215 23.3667 198.015 23.42 197.748 23.42C197.495 23.42 197.248 23.3467 197.008 23.2C196.768 23.04 196.482 22.8667 196.148 22.68C195.815 22.48 195.415 22.3067 194.948 22.16C194.495 22 193.928 21.92 193.248 21.92C192.382 21.92 191.622 22.08 190.968 22.4C190.315 22.7067 189.768 23.1533 189.328 23.74C188.902 24.3267 188.582 25.04 188.368 25.88C188.155 26.7067 188.048 27.6467 188.048 28.7C188.048 29.7933 188.162 30.7667 188.388 31.62C188.628 32.4733 188.968 33.1933 189.408 33.78C189.848 34.3533 190.382 34.7933 191.008 35.1C191.635 35.3933 192.342 35.54 193.128 35.54C193.915 35.54 194.548 35.4467 195.028 35.26C195.522 35.06 195.935 34.8467 196.268 34.62C196.602 34.38 196.888 34.1667 197.128 33.98C197.382 33.78 197.662 33.68 197.968 33.68C198.368 33.68 198.668 33.8333 198.868 34.14L200.288 35.94C199.742 36.58 199.148 37.12 198.508 37.56C197.868 37.9867 197.202 38.3333 196.508 38.6C195.828 38.8533 195.122 39.0333 194.388 39.14C193.668 39.2467 192.948 39.3 192.228 39.3C190.962 39.3 189.768 39.0667 188.648 38.6C187.528 38.12 186.548 37.4267 185.708 36.52C184.868 35.6133 184.202 34.5067 183.708 33.2C183.228 31.88 182.988 30.38 182.988 28.7C182.988 27.1933 183.202 25.8 183.628 24.52C184.068 23.2267 184.708 22.1133 185.548 21.18C186.388 20.2333 187.428 19.4933 188.668 18.96C189.908 18.4267 191.335 18.16 192.948 18.16C194.482 18.16 195.822 18.4067 196.968 18.9C198.128 19.3933 199.168 20.1 200.088 21.02L198.788 22.82ZM212.114 18.16C213.634 18.16 215.014 18.4067 216.254 18.9C217.507 19.3933 218.574 20.0933 219.454 21C220.347 21.9067 221.034 23.0133 221.514 24.32C221.994 25.6267 222.234 27.0867 222.234 28.7C222.234 30.3267 221.994 31.7933 221.514 33.1C221.034 34.4067 220.347 35.52 219.454 36.44C218.574 37.36 217.507 38.0667 216.254 38.56C215.014 39.0533 213.634 39.3 212.114 39.3C210.58 39.3 209.187 39.0533 207.934 38.56C206.68 38.0667 205.607 37.36 204.714 36.44C203.834 35.52 203.147 34.4067 202.654 33.1C202.174 31.7933 201.934 30.3267 201.934 28.7C201.934 27.0867 202.174 25.6267 202.654 24.32C203.147 23.0133 203.834 21.9067 204.714 21C205.607 20.0933 206.68 19.3933 207.934 18.9C209.187 18.4067 210.58 18.16 212.114 18.16ZM212.114 35.5C213.82 35.5 215.08 34.9267 215.894 33.78C216.72 32.6333 217.134 30.9533 217.134 28.74C217.134 26.5267 216.72 24.84 215.894 23.68C215.08 22.52 213.82 21.94 212.114 21.94C210.38 21.94 209.094 22.5267 208.254 23.7C207.427 24.86 207.014 26.54 207.014 28.74C207.014 30.94 207.427 32.62 208.254 33.78C209.094 34.9267 210.38 35.5 212.114 35.5ZM235.083 18.16C236.603 18.16 237.983 18.4067 239.223 18.9C240.476 19.3933 241.543 20.0933 242.423 21C243.316 21.9067 244.002 23.0133 244.483 24.32C244.963 25.6267 245.203 27.0867 245.203 28.7C245.203 30.3267 244.963 31.7933 244.483 33.1C244.002 34.4067 243.316 35.52 242.423 36.44C241.543 37.36 240.476 38.0667 239.223 38.56C237.983 39.0533 236.603 39.3 235.083 39.3C233.549 39.3 232.156 39.0533 230.903 38.56C229.649 38.0667 228.576 37.36 227.683 36.44C226.803 35.52 226.116 34.4067 225.623 33.1C225.143 31.7933 224.903 30.3267 224.903 28.7C224.903 27.0867 225.143 25.6267 225.623 24.32C226.116 23.0133 226.803 21.9067 227.683 21C228.576 20.0933 229.649 19.3933 230.903 18.9C232.156 18.4067 233.549 18.16 235.083 18.16ZM235.083 35.5C236.789 35.5 238.049 34.9267 238.863 33.78C239.689 32.6333 240.103 30.9533 240.103 28.74C240.103 26.5267 239.689 24.84 238.863 23.68C238.049 22.52 236.789 21.94 235.083 21.94C233.349 21.94 232.063 22.5267 231.223 23.7C230.396 24.86 229.983 26.54 229.983 28.74C229.983 30.94 230.396 32.62 231.223 33.78C232.063 34.9267 233.349 35.5 235.083 35.5ZM255.421 39.32C253.634 39.32 252.261 38.82 251.301 37.82C250.354 36.8067 249.881 35.4133 249.881 33.64V22.18H247.781C247.514 22.18 247.287 22.0933 247.101 21.92C246.914 21.7467 246.821 21.4867 246.821 21.14V19.18L250.121 18.64L251.161 13.04C251.227 12.7733 251.354 12.5667 251.541 12.42C251.727 12.2733 251.967 12.2 252.261 12.2H254.821V18.66H260.301V22.18H254.821V33.3C254.821 33.94 254.974 34.44 255.281 34.8C255.601 35.16 256.034 35.34 256.581 35.34C256.887 35.34 257.141 35.3067 257.341 35.24C257.554 35.16 257.734 35.08 257.881 35C258.041 34.92 258.181 34.8467 258.301 34.78C258.421 34.7 258.541 34.66 258.661 34.66C258.807 34.66 258.927 34.7 259.021 34.78C259.114 34.8467 259.214 34.9533 259.321 35.1L260.801 37.5C260.081 38.1 259.254 38.5533 258.321 38.86C257.387 39.1667 256.421 39.32 255.421 39.32ZM276.527 26.38C276.527 25.74 276.434 25.14 276.247 24.58C276.074 24.0067 275.807 23.5067 275.447 23.08C275.087 22.6533 274.627 22.32 274.067 22.08C273.521 21.8267 272.881 21.7 272.147 21.7C270.721 21.7 269.594 22.1067 268.767 22.92C267.954 23.7333 267.434 24.8867 267.207 26.38H276.527ZM267.107 29.36C267.187 30.4133 267.374 31.3267 267.667 32.1C267.961 32.86 268.347 33.4933 268.827 34C269.307 34.4933 269.874 34.8667 270.527 35.12C271.194 35.36 271.927 35.48 272.727 35.48C273.527 35.48 274.214 35.3867 274.787 35.2C275.374 35.0133 275.881 34.8067 276.307 34.58C276.747 34.3533 277.127 34.1467 277.447 33.96C277.781 33.7733 278.101 33.68 278.407 33.68C278.821 33.68 279.127 33.8333 279.327 34.14L280.747 35.94C280.201 36.58 279.587 37.12 278.907 37.56C278.227 37.9867 277.514 38.3333 276.767 38.6C276.034 38.8533 275.281 39.0333 274.507 39.14C273.747 39.2467 273.007 39.3 272.287 39.3C270.861 39.3 269.534 39.0667 268.307 38.6C267.081 38.12 266.014 37.42 265.107 36.5C264.201 35.5667 263.487 34.42 262.967 33.06C262.447 31.6867 262.187 30.1 262.187 28.3C262.187 26.9 262.414 25.5867 262.867 24.36C263.321 23.12 263.967 22.0467 264.807 21.14C265.661 20.22 266.694 19.4933 267.907 18.96C269.134 18.4267 270.514 18.16 272.047 18.16C273.341 18.16 274.534 18.3667 275.627 18.78C276.721 19.1933 277.661 19.8 278.447 20.6C279.234 21.3867 279.847 22.36 280.287 23.52C280.741 24.6667 280.967 25.98 280.967 27.46C280.967 28.2067 280.887 28.7133 280.727 28.98C280.567 29.2333 280.261 29.36 279.807 29.36H267.107ZM289.334 22.04C289.974 20.8133 290.734 19.8533 291.614 19.16C292.494 18.4533 293.534 18.1 294.734 18.1C295.681 18.1 296.441 18.3067 297.014 18.72L296.694 22.42C296.628 22.66 296.528 22.8333 296.394 22.94C296.274 23.0333 296.108 23.08 295.894 23.08C295.694 23.08 295.394 23.0467 294.994 22.98C294.608 22.9133 294.228 22.88 293.854 22.88C293.308 22.88 292.821 22.96 292.394 23.12C291.968 23.28 291.581 23.5133 291.234 23.82C290.901 24.1133 290.601 24.4733 290.334 24.9C290.081 25.3267 289.841 25.8133 289.614 26.36V39H284.674V18.48H287.574C288.081 18.48 288.434 18.5733 288.634 18.76C288.834 18.9333 288.968 19.2533 289.034 19.72L289.334 22.04Z" fill="white"/>
<path d="M140.5 88.68C140.5 90.8267 140.16 92.78 139.48 94.54C138.8 96.3 137.84 97.8067 136.6 99.06C135.36 100.313 133.867 101.287 132.12 101.98C130.387 102.66 128.467 103 126.36 103H115.66V74.34H126.36C128.467 74.34 130.387 74.6867 132.12 75.38C133.867 76.06 135.36 77.0333 136.6 78.3C137.84 79.5533 138.8 81.06 139.48 82.82C140.16 84.58 140.5 86.5333 140.5 88.68ZM136.52 88.68C136.52 86.92 136.28 85.3467 135.8 83.96C135.32 82.5733 134.64 81.4 133.76 80.44C132.88 79.48 131.813 78.7467 130.56 78.24C129.307 77.7333 127.907 77.48 126.36 77.48H119.54V99.86H126.36C127.907 99.86 129.307 99.6067 130.56 99.1C131.813 98.5933 132.88 97.8667 133.76 96.92C134.64 95.96 135.32 94.7867 135.8 93.4C136.28 92.0133 136.52 90.44 136.52 88.68ZM155.722 93.88C154.082 93.9333 152.682 94.0667 151.522 94.28C150.375 94.48 149.435 94.7467 148.702 95.08C147.982 95.4133 147.455 95.8067 147.122 96.26C146.802 96.7133 146.642 97.22 146.642 97.78C146.642 98.3133 146.729 98.7733 146.902 99.16C147.075 99.5467 147.309 99.8667 147.602 100.12C147.909 100.36 148.262 100.54 148.662 100.66C149.075 100.767 149.515 100.82 149.982 100.82C150.609 100.82 151.182 100.76 151.702 100.64C152.222 100.507 152.709 100.32 153.162 100.08C153.629 99.84 154.069 99.5533 154.482 99.22C154.909 98.8867 155.322 98.5067 155.722 98.08V93.88ZM144.222 85.6C145.342 84.52 146.549 83.7133 147.842 83.18C149.135 82.6467 150.569 82.38 152.142 82.38C153.275 82.38 154.282 82.5667 155.162 82.94C156.042 83.3133 156.782 83.8333 157.382 84.5C157.982 85.1667 158.435 85.9733 158.742 86.92C159.049 87.8667 159.202 88.9067 159.202 90.04V103H157.622C157.275 103 157.009 102.947 156.822 102.84C156.635 102.72 156.489 102.493 156.382 102.16L155.982 100.24C155.449 100.733 154.929 101.173 154.422 101.56C153.915 101.933 153.382 102.253 152.822 102.52C152.262 102.773 151.662 102.967 151.022 103.1C150.395 103.247 149.695 103.32 148.922 103.32C148.135 103.32 147.395 103.213 146.702 103C146.009 102.773 145.402 102.44 144.882 102C144.375 101.56 143.969 101.007 143.662 100.34C143.369 99.66 143.222 98.86 143.222 97.94C143.222 97.14 143.442 96.3733 143.882 95.64C144.322 94.8933 145.035 94.2333 146.022 93.66C147.009 93.0867 148.295 92.62 149.882 92.26C151.469 91.8867 153.415 91.6733 155.722 91.62V90.04C155.722 88.4667 155.382 87.28 154.702 86.48C154.022 85.6667 153.029 85.26 151.722 85.26C150.842 85.26 150.102 85.3733 149.502 85.6C148.915 85.8133 148.402 86.06 147.962 86.34C147.535 86.6067 147.162 86.8533 146.842 87.08C146.535 87.2933 146.229 87.4 145.922 87.4C145.682 87.4 145.475 87.34 145.302 87.22C145.129 87.0867 144.982 86.9267 144.862 86.74L144.222 85.6ZM170.571 103.32C168.971 103.32 167.738 102.873 166.871 101.98C166.018 101.087 165.591 99.8 165.591 98.12V85.72H163.151C162.938 85.72 162.758 85.66 162.611 85.54C162.465 85.4067 162.391 85.2067 162.391 84.94V83.52L165.711 83.1L166.531 76.84C166.571 76.64 166.658 76.48 166.791 76.36C166.938 76.2267 167.125 76.16 167.351 76.16H169.151V83.14H175.011V85.72H169.151V97.88C169.151 98.7333 169.358 99.3667 169.771 99.78C170.185 100.193 170.718 100.4 171.371 100.4C171.745 100.4 172.065 100.353 172.331 100.26C172.611 100.153 172.851 100.04 173.051 99.92C173.251 99.8 173.418 99.6933 173.551 99.6C173.698 99.4933 173.825 99.44 173.931 99.44C174.118 99.44 174.285 99.5533 174.431 99.78L175.471 101.48C174.858 102.053 174.118 102.507 173.251 102.84C172.385 103.16 171.491 103.32 170.571 103.32ZM189.667 93.88C188.027 93.9333 186.627 94.0667 185.467 94.28C184.321 94.48 183.381 94.7467 182.647 95.08C181.927 95.4133 181.401 95.8067 181.067 96.26C180.747 96.7133 180.587 97.22 180.587 97.78C180.587 98.3133 180.674 98.7733 180.847 99.16C181.021 99.5467 181.254 99.8667 181.547 100.12C181.854 100.36 182.207 100.54 182.607 100.66C183.021 100.767 183.461 100.82 183.927 100.82C184.554 100.82 185.127 100.76 185.647 100.64C186.167 100.507 186.654 100.32 187.107 100.08C187.574 99.84 188.014 99.5533 188.427 99.22C188.854 98.8867 189.267 98.5067 189.667 98.08V93.88ZM178.167 85.6C179.287 84.52 180.494 83.7133 181.787 83.18C183.081 82.6467 184.514 82.38 186.087 82.38C187.221 82.38 188.227 82.5667 189.107 82.94C189.987 83.3133 190.727 83.8333 191.327 84.5C191.927 85.1667 192.381 85.9733 192.687 86.92C192.994 87.8667 193.147 88.9067 193.147 90.04V103H191.567C191.221 103 190.954 102.947 190.767 102.84C190.581 102.72 190.434 102.493 190.327 102.16L189.927 100.24C189.394 100.733 188.874 101.173 188.367 101.56C187.861 101.933 187.327 102.253 186.767 102.52C186.207 102.773 185.607 102.967 184.967 103.1C184.341 103.247 183.641 103.32 182.867 103.32C182.081 103.32 181.341 103.213 180.647 103C179.954 102.773 179.347 102.44 178.827 102C178.321 101.56 177.914 101.007 177.607 100.34C177.314 99.66 177.167 98.86 177.167 97.94C177.167 97.14 177.387 96.3733 177.827 95.64C178.267 94.8933 178.981 94.2333 179.967 93.66C180.954 93.0867 182.241 92.62 183.827 92.26C185.414 91.8867 187.361 91.6733 189.667 91.62V90.04C189.667 88.4667 189.327 87.28 188.647 86.48C187.967 85.6667 186.974 85.26 185.667 85.26C184.787 85.26 184.047 85.3733 183.447 85.6C182.861 85.8133 182.347 86.06 181.907 86.34C181.481 86.6067 181.107 86.8533 180.787 87.08C180.481 87.2933 180.174 87.4 179.867 87.4C179.627 87.4 179.421 87.34 179.247 87.22C179.074 87.0867 178.927 86.9267 178.807 86.74L178.167 85.6ZM202.15 98.12C202.803 99 203.517 99.62 204.29 99.98C205.063 100.34 205.93 100.52 206.89 100.52C208.783 100.52 210.237 99.8467 211.25 98.5C212.263 97.1533 212.77 95.2333 212.77 92.74C212.77 91.42 212.65 90.2867 212.41 89.34C212.183 88.3933 211.85 87.62 211.41 87.02C210.97 86.4067 210.43 85.96 209.79 85.68C209.15 85.4 208.423 85.26 207.61 85.26C206.45 85.26 205.43 85.5267 204.55 86.06C203.683 86.5933 202.883 87.3467 202.15 88.32V98.12ZM201.97 85.88C202.823 84.8267 203.81 83.98 204.93 83.34C206.05 82.7 207.33 82.38 208.77 82.38C209.943 82.38 211.003 82.6067 211.95 83.06C212.897 83.5 213.703 84.16 214.37 85.04C215.037 85.9067 215.55 86.9867 215.91 88.28C216.27 89.5733 216.45 91.06 216.45 92.74C216.45 94.2333 216.25 95.6267 215.85 96.92C215.45 98.2 214.87 99.3133 214.11 100.26C213.363 101.193 212.443 101.933 211.35 102.48C210.27 103.013 209.05 103.28 207.69 103.28C206.45 103.28 205.383 103.073 204.49 102.66C203.61 102.233 202.83 101.647 202.15 100.9V109.86H198.57V82.74H200.71C201.217 82.74 201.53 82.9867 201.65 83.48L201.97 85.88ZM229.532 82.42C231.012 82.42 232.345 82.6667 233.532 83.16C234.719 83.6533 235.732 84.3533 236.572 85.26C237.412 86.1667 238.052 87.2667 238.492 88.56C238.945 89.84 239.172 91.2733 239.172 92.86C239.172 94.46 238.945 95.9 238.492 97.18C238.052 98.46 237.412 99.5533 236.572 100.46C235.732 101.367 234.719 102.067 233.532 102.56C232.345 103.04 231.012 103.28 229.532 103.28C228.039 103.28 226.692 103.04 225.492 102.56C224.305 102.067 223.292 101.367 222.452 100.46C221.612 99.5533 220.965 98.46 220.512 97.18C220.072 95.9 219.852 94.46 219.852 92.86C219.852 91.2733 220.072 89.84 220.512 88.56C220.965 87.2667 221.612 86.1667 222.452 85.26C223.292 84.3533 224.305 83.6533 225.492 83.16C226.692 82.6667 228.039 82.42 229.532 82.42ZM229.532 100.5C231.532 100.5 233.025 99.8333 234.012 98.5C234.999 97.1533 235.492 95.28 235.492 92.88C235.492 90.4667 234.999 88.5867 234.012 87.24C233.025 85.8933 231.532 85.22 229.532 85.22C228.519 85.22 227.632 85.3933 226.872 85.74C226.125 86.0867 225.499 86.5867 224.992 87.24C224.499 87.8933 224.125 88.7 223.872 89.66C223.632 90.6067 223.512 91.68 223.512 92.88C223.512 95.28 224.005 97.1533 224.992 98.5C225.992 99.8333 227.505 100.5 229.532 100.5ZM247.067 86.8C247.707 85.4133 248.494 84.3333 249.427 83.56C250.361 82.7733 251.501 82.38 252.847 82.38C253.274 82.38 253.681 82.4267 254.067 82.52C254.467 82.6133 254.821 82.76 255.127 82.96L254.867 85.62C254.787 85.9533 254.587 86.12 254.267 86.12C254.081 86.12 253.807 86.08 253.447 86C253.087 85.92 252.681 85.88 252.227 85.88C251.587 85.88 251.014 85.9733 250.507 86.16C250.014 86.3467 249.567 86.6267 249.167 87C248.781 87.36 248.427 87.8133 248.107 88.36C247.801 88.8933 247.521 89.5067 247.267 90.2V103H243.687V82.74H245.727C246.114 82.74 246.381 82.8133 246.527 82.96C246.674 83.1067 246.774 83.36 246.827 83.72L247.067 86.8ZM264.478 103.32C262.878 103.32 261.644 102.873 260.778 101.98C259.924 101.087 259.498 99.8 259.498 98.12V85.72H257.058C256.844 85.72 256.664 85.66 256.518 85.54C256.371 85.4067 256.298 85.2067 256.298 84.94V83.52L259.618 83.1L260.438 76.84C260.478 76.64 260.564 76.48 260.698 76.36C260.844 76.2267 261.031 76.16 261.258 76.16H263.058V83.14H268.918V85.72H263.058V97.88C263.058 98.7333 263.264 99.3667 263.678 99.78C264.091 100.193 264.624 100.4 265.278 100.4C265.651 100.4 265.971 100.353 266.238 100.26C266.518 100.153 266.758 100.04 266.958 99.92C267.158 99.8 267.324 99.6933 267.458 99.6C267.604 99.4933 267.731 99.44 267.838 99.44C268.024 99.44 268.191 99.5533 268.338 99.78L269.378 101.48C268.764 102.053 268.024 102.507 267.158 102.84C266.291 103.16 265.398 103.32 264.478 103.32ZM283.573 93.88C281.933 93.9333 280.533 94.0667 279.373 94.28C278.227 94.48 277.287 94.7467 276.553 95.08C275.833 95.4133 275.307 95.8067 274.973 96.26C274.653 96.7133 274.493 97.22 274.493 97.78C274.493 98.3133 274.58 98.7733 274.753 99.16C274.927 99.5467 275.16 99.8667 275.453 100.12C275.76 100.36 276.113 100.54 276.513 100.66C276.927 100.767 277.367 100.82 277.833 100.82C278.46 100.82 279.033 100.76 279.553 100.64C280.073 100.507 280.56 100.32 281.013 100.08C281.48 99.84 281.92 99.5533 282.333 99.22C282.76 98.8867 283.173 98.5067 283.573 98.08V93.88ZM272.073 85.6C273.193 84.52 274.4 83.7133 275.693 83.18C276.987 82.6467 278.42 82.38 279.993 82.38C281.127 82.38 282.133 82.5667 283.013 82.94C283.893 83.3133 284.633 83.8333 285.233 84.5C285.833 85.1667 286.287 85.9733 286.593 86.92C286.9 87.8667 287.053 88.9067 287.053 90.04V103H285.473C285.127 103 284.86 102.947 284.673 102.84C284.487 102.72 284.34 102.493 284.233 102.16L283.833 100.24C283.3 100.733 282.78 101.173 282.273 101.56C281.767 101.933 281.233 102.253 280.673 102.52C280.113 102.773 279.513 102.967 278.873 103.1C278.247 103.247 277.547 103.32 276.773 103.32C275.987 103.32 275.247 103.213 274.553 103C273.86 102.773 273.253 102.44 272.733 102C272.227 101.56 271.82 101.007 271.513 100.34C271.22 99.66 271.073 98.86 271.073 97.94C271.073 97.14 271.293 96.3733 271.733 95.64C272.173 94.8933 272.887 94.2333 273.873 93.66C274.86 93.0867 276.147 92.62 277.733 92.26C279.32 91.8867 281.267 91.6733 283.573 91.62V90.04C283.573 88.4667 283.233 87.28 282.553 86.48C281.873 85.6667 280.88 85.26 279.573 85.26C278.693 85.26 277.953 85.3733 277.353 85.6C276.767 85.8133 276.253 86.06 275.813 86.34C275.387 86.6067 275.013 86.8533 274.693 87.08C274.387 87.2933 274.08 87.4 273.773 87.4C273.533 87.4 273.327 87.34 273.153 87.22C272.98 87.0867 272.833 86.9267 272.713 86.74L272.073 85.6ZM296.156 73.54V103H292.596V73.54H296.156Z" fill="white"/>
<line x1="95" y1="57.5" x2="320" y2="57.5" stroke="white"/>
<defs>
<clipPath id="clip0_8_2">
<rect width="69" height="105" fill="white" transform="translate(0 5)"/>
</clipPath>
</defs>
</svg>
